<?xml version="1.0" standalone="no"?>
<!DOCTYPE svg PUBLIC "-//W3C//DTD SVG 20010904//EN"
 "http://www.w3.org/TR/2001/REC-SVG-20010904/DTD/svg10.dtd">
<svg version="1.0" xmlns="http://www.w3.org/2000/svg"
 width="349.000000pt" height="349.000000pt" viewBox="0 0 349.000000 349.000000"
 preserveAspectRatio="xMidYMid meet">
<metadata>
Created by potrace 1.11, written by Peter Selinger 2001-2013
</metadata>
<g transform="translate(0.000000,349.000000) scale(0.100000,-0.100000)"
fill="#000000" stroke="none">
<path d="M976 2971 c-8 -12 0 -17 39 -25 62 -13 71 -16 110 -30 115 -42 265
-172 334 -289 66 -113 85 -179 85 -307 1 -100 -2 -120 -21 -157 -41 -78 -88
-116 -173 -138 -154 -41 -279 52 -307 225 -11 71 2 176 32 257 32 86 32 85 20
89 -33 12 -269 -300 -326 -430 -5 -12 -13 -28 -18 -36 -30 -49 -106 -271 -116
-340 -4 -25 -8 -48 -11 -51 -16 -27 -24 -322 -11 -429 20 -167 71 -336 150
-498 25 -51 38 -43 56 33 16 65 75 187 122 250 32 44 57 70 142 150 12 12 36
29 54 40 44 26 28 48 -24 33 -46 -12 -142 -58 -181 -87 -35 -24 -42 -26 -42
-8 0 15 74 142 99 170 64 73 150 144 194 160 25 9 21 23 -15 48 -43 31 -95 87
-110 122 -7 15 -16 27 -19 27 -8 0 -16 28 -25 85 l-6 38 48 -42 c41 -36 109
-76 149 -88 108 -31 245 -33 495 -7 49 5 200 6 230 1 46 -8 85 -18 110 -30 81
-37 137 -113 127 -172 -7 -43 0 -50 63 -65 125 -30 238 -111 270 -195 14 -35
15 -144 2 -157 -5 -5 -19 0 -34 11 -14 11 -28 18 -31 14 -4 -3 -12 -1 -19 4
-12 10 -188 9 -253 -1 -16 -3 -52 -8 -80 -12 -53 -8 -62 -10 -70 -14 -3 -1 -8
-3 -12 -5 -56 -15 -75 -21 -113 -39 -140 -65 -238 -187 -269 -334 -23 -112 -7
-157 30 -83 69 135 192 243 313 274 55 15 203 16 254 3 12 -3 32 -8 43 -11 56
-12 269 -133 269 -152 0 -2 -15 -2 -32 2 -70 12 -203 15 -218 5 -13 -9 -13
-11 0 -20 8 -6 26 -13 40 -17 44 -11 158 -70 206 -108 26 -19 52 -34 58 -32
17 6 115 158 156 242 21 44 50 116 64 160 25 76 31 98 42 155 2 14 6 30 9 37
19 54 26 359 11 453 -18 112 -55 220 -103 300 -41 70 -70 102 -119 132 -57 36
-71 24 -30 -23 34 -40 47 -82 41 -129 -2 -14 -4 -29 -4 -33 -1 -4 -13 -19 -27
-32 -40 -37 -88 -34 -128 8 -18 19 -32 42 -33 53 -1 10 -4 71 -6 134 -8 173
-29 270 -85 390 -67 142 -162 243 -304 319 -52 28 -165 69 -203 75 -8 1 -17 5
-21 9 -4 3 -15 2 -26 -4 -19 -10 -19 -11 4 -31 13 -11 30 -25 39 -32 43 -30
97 -145 113 -239 6 -37 -12 -31 -35 12 -35 66 -125 166 -204 228 -79 61 -261
148 -330 157 -11 2 -27 6 -35 9 -63 23 -382 38 -394 18z"/>
<path d="M1677 1546 c-7 -20 37 -91 87 -141 88 -88 148 -89 240 -5 56 52 52
68 -17 66 -73 -3 -150 15 -234 55 -40 20 -74 31 -76 25z"/>
</g>
</svg>
